<svg width="1242" height="2436" viewBox="0 0 1242 2436" fill="none" xmlns="http://www.w3.org/2000/svg">
  <rect width="1242" height="2436" fill="#ffffff"/>
  <text x="621" y="1218" font-family="Arial" font-size="120" fill="#000000" text-anchor="middle" dominant-baseline="middle">ASL Recognition</text>
  <path d="M521 918c30-20 60-30 100-30s70 10 100 30c30 20 50 45 60 75 10 30 10 60 0 90-10 30-30 55-60 75-30 20-60 30-100 30s-70-10-100-30c-30-20-50-45-60-75-10-30-10-60 0-90 10-30 30-55 60-75z" fill="#4A90E2"/>
  <path d="M621 1038c-20 0-37.5 7.5-52.5 22.5S546 1093 546 1113s7.5 37.5 22.5 52.5S601 1188 621 1188s37.5-7.5 52.5-22.5S696 1133 696 1113s-7.5-37.5-22.5-52.5S641 1038 621 1038z" fill="#ffffff"/>
</svg>